# xmcd
#
# Track frame offsets:
#	150
#	19055
#	38484
#	54765
#	70926
#	88852
#	107278
#	121644
#	137034
#	151541
#	168075
#	185825
#	203802
#	217185
#	232678
#	247001
#	264042
#	283967
#	298371
#	313350
#
# Disc length: 4384 seconds
#
# Revision: 2
# Processed by: cddbd v1.5.2PL0 Copyright (c) Steve Scherf et al.
# Submitted via: EZCDAudioConverter 8.2.2.1
#
DISCID=17111e14
DTITLE=LEANDRO and LEONARDO - DOSE DUPLA - VOL.02 [CD 857383633-2) CHANTECLER
DYEAR=2000
DGENRE=SERTANEJO
TTITLE0=EU JURO (I SWEAR) (BY GILMAR SINISTRO)
TTITLE1=UM VIOLEIRO TOCA (BY GILMAR SINISTRO)
TTITLE2=DIZ PRA MIM (BY GILMAR SINISTRO)
TTITLE3=CHUVA DE LÁGRIMAS (BY GILMAR SINISTRO)
TTITLE4=FESTA DE RODEIO (BY GILMAR SINISTRO)
TTITLE5=JOGO DE ORGULHO (BY GILMAR SINISTRO)
TTITLE6=TRANSA COMIGO (BY GILMAR SINISTRO)
TTITLE7=FUI DANDO PORRADA (BY GILMAR SINISTRO)
TTITLE8=ANIMAL (BY GILMAR SINISTRO)
TTITLE9=VIÚVA NOVA (BY GILMAR SINISTRO)
TTITLE10=SONHO POR SONHO (BY GILMAR SINISTRO)
TTITLE11=GOSTOSO SENTIMENTO (BY GILMAR SINISTRO)
TTITLE12=NÃO APRENDI A DIZER ADEUS (BY GILMAR SINISTRO)
TTITLE13=BATE CORAÇÃO (BY GILMAR SINISTRO)
TTITLE14=SABOR DE MIM (BY GILMAR SINISTRO)
TTITLE15=ME DÊ UM SINAL (BY GILMAR SINISTRO)
TTITLE16=A ROTINA (FIM DE SEMANA) (BY GILMAR SINISTRO)
TTITLE17=NÃO OLHE ASSIM (BY GILMAR SINISTRO)
TTITLE18=AMORES SÃO COISAS DA VIDA (BY GILMAR SINISTRO)
TTITLE19=PAZ NA CAMA (BY GILMAR SINISTRO)
EXTD=
EXTT0=
EXTT1=
EXTT2=
EXTT3=
EXTT4=
EXTT5=
EXTT6=
EXTT7=
EXTT8=
EXTT9=
EXTT10=
EXTT11=
EXTT12=
EXTT13=
EXTT14=
EXTT15=
EXTT16=
EXTT17=
EXTT18=
EXTT19=
PLAYORDER=
